<?xml version="1.0" encoding="UTF-8" standalone="no"?>
<!DOCTYPE svg PUBLIC "-//W3C//DTD SVG 1.1//EN" "http://www.w3.org/Graphics/SVG/1.1/DTD/svg11.dtd">
<svg width="100%" height="100%" viewBox="0 0 500 250" version="1.1" xmlns="http://www.w3.org/2000/svg" xmlns:xlink="http://www.w3.org/1999/xlink" xml:space="preserve" xmlns:serif="http://www.serif.com/" style="fill-rule:evenodd;clip-rule:evenodd;stroke-linejoin:round;stroke-miterlimit:2;">
    <g id="Bayzat" transform="matrix(1,0,0,1,50,50.334006)">
        <path d="M341.722,0.988L341.722,16.023L363.171,16.023L363.171,87.516L378.551,87.516L378.551,16.023L400,16.023L400,0.988L341.722,0.988Z" style="fill:#9647ff;fill-rule:nonzero;"/>
        <path d="M26.945,16.016C33.732,16.016 38.904,21.145 38.904,27.46C38.904,33.767 33.732,39.256 26.945,39.256L15.395,39.256L15.395,16.023L26.945,16.023L26.945,16.016ZM48.555,72.325L15.395,72.318L15.388,53.882L48.548,53.861L48.548,72.325L48.555,72.325ZM63.943,87.501L63.936,39.355L51.512,39.355C53.72,36.004 54.976,32.01 54.976,27.453C54.976,12.657 42.029,0.974 26.112,0.974L0,0.974L0,87.501L63.943,87.501Z" style="fill:#9647ff;fill-rule:nonzero;"/>
        <path d="M102.219,15.395C109.655,15.395 115.695,21.434 115.695,28.871L115.695,39.348L88.743,39.348L88.743,28.871C88.743,21.441 94.789,15.395 102.219,15.395ZM88.743,53.875L115.695,53.875L115.695,87.508L131.082,87.508L131.082,28.864C131.082,12.947 118.136,0 102.219,0C86.302,0 73.355,12.947 73.355,28.864L73.355,87.508L88.743,87.508L88.743,53.875Z" style="fill:#9647ff;fill-rule:nonzero;"/>
        <path d="M213.842,0.981L213.842,16.115L249.359,16.115L209.835,73.327L209.835,87.466L269.157,87.466L269.157,72.325L228.631,72.325L268.197,15.077L268.19,15.07L268.204,0.981L213.842,0.981Z" style="fill:#9647ff;fill-rule:nonzero;"/>
        <path d="M204.431,31.509L204.431,0.974L177.437,0.974L177.437,5.722C177.437,26.317 168.187,37.923 155.882,39.023L155.882,0.981L140.502,0.981L140.502,53.875L145.278,53.875C168.166,53.875 184.739,44.83 189.043,20.545L189.043,32.145C189.043,66.081 163.89,72.981 144.728,72.981L140.495,72.981L140.495,87.501L147.268,87.501C174.96,87.508 204.431,74.759 204.431,31.509Z" style="fill:#9647ff;fill-rule:nonzero;"/>
        <path d="M307.433,15.395C314.869,15.395 320.909,21.434 320.909,28.871L320.909,39.348L293.957,39.348L293.957,28.871C293.957,21.441 299.997,15.395 307.433,15.395ZM293.957,53.875L320.909,53.875L320.909,87.508L336.297,87.508L336.297,28.864C336.297,12.947 323.35,0 307.433,0C291.516,0 278.569,12.947 278.569,28.864L278.569,87.508L293.957,87.508L293.957,53.875Z" style="fill:#9647ff;fill-rule:nonzero;"/>
    </g>
    <g id="Report" transform="matrix(1.299399,0,0,1.299399,-117.832413,-36.33319)">
        <path d="M197.225,151.667C201.082,149.437 205.232,148.322 209.676,148.322C213.126,148.322 215.97,149.071 218.208,150.568C220.446,152.065 221.565,153.97 221.565,156.281C221.565,158.169 220.833,159.841 219.368,161.298C217.903,162.755 215.901,163.809 213.362,164.46C214.485,167.554 216.011,170.567 217.94,173.498C219.869,176.429 221.801,178.677 223.738,180.24L223.372,180.362C220.947,181.19 218.571,182.359 216.243,183.869L215.877,184.113L215.755,183.332C214.713,177.033 213.256,171.694 211.385,167.316L211.287,167.072C210.164,167.593 208.658,168.008 206.77,168.317L206.575,168.341L206.575,177.472L210.872,182.062L198.25,182.062L197.859,181.476L209.48,181.476L205.94,177.643L205.94,167.804L206.453,167.731C208.308,167.536 209.863,167.17 211.116,166.632C211.018,166.437 210.961,166.315 210.945,166.266L210.701,165.558C210.685,165.509 210.644,165.412 210.579,165.265C209.57,165.558 207.666,165.876 204.866,166.217L204.598,166.266L204.598,177.155L207.381,180.06L196.59,180.06L199.764,177.155L199.764,168.952L199.568,168.976C198.624,169.188 197.77,169.424 197.005,169.684L196.809,169.757L196.59,169.269C197.306,168.992 197.867,168.805 198.274,168.708L199.568,168.39L199.764,168.341L199.764,167.072C198.803,167.072 197.607,167.283 196.175,167.707L195.906,167.804C195.939,167.576 196.101,167.047 196.394,166.217C196.427,166.152 196.541,165.786 196.736,165.119C196.753,165.07 196.777,164.997 196.809,164.899C197.542,164.948 198.112,164.972 198.518,164.972C198.958,164.972 199.365,164.948 199.739,164.899L199.739,152.887C198.99,152.432 198.217,152.049 197.42,151.74L197.225,151.667ZM204.598,151.032L204.598,164.191C205.07,164.191 205.517,164.15 205.94,164.069L205.94,152.057C206.836,151.813 207.91,151.691 209.163,151.691C212.337,151.691 214.493,152.733 215.633,154.816C214.428,153.839 213.37,153.168 212.459,152.802C211.547,152.436 210.457,152.253 209.187,152.253C208.195,152.253 207.324,152.35 206.575,152.545L206.575,164.069L206.844,164.02C210.05,163.434 212.43,162.51 213.985,161.249C215.539,159.988 216.316,158.348 216.316,156.33C216.316,154.523 215.616,153.03 214.217,151.85C212.817,150.67 211.051,150.08 208.919,150.08C207.21,150.08 205.769,150.397 204.598,151.032ZM216.39,165.68C217.415,169.033 219.23,172.313 221.834,175.519C223.461,177.521 225.52,179.32 228.011,180.915C224.283,181.907 220.784,183.421 217.513,185.456L217.293,185.602L216.805,185.212C219.913,183.177 223.225,181.68 226.741,180.719C222.054,177.594 218.367,172.598 215.682,165.729L215.535,165.314C220.516,163.426 223.006,160.545 223.006,156.671C223.006,155.076 222.363,153.335 221.077,151.447C222.721,152.944 223.543,154.849 223.543,157.16C223.543,160.903 221.158,163.743 216.39,165.68Z" style="fill:#9647ff;fill-rule:nonzero;"/>
        <path d="M254.305,148.737L253.914,149.203C252.254,151.245 250.935,153.59 249.959,156.238C249.796,155.866 249.674,155.592 249.593,155.414C248.697,153.477 247.737,152.225 246.712,151.66C245.686,151.095 243.847,150.812 241.194,150.812C239.974,150.812 238.509,150.852 236.8,150.933L236.8,162.091L238.362,162.091L238.362,152.217C239.599,152.11 240.779,152.057 241.902,152.057C243.969,152.057 245.491,152.275 246.468,152.709C247.444,153.144 248.315,153.989 249.08,155.245C248.852,155.084 248.689,154.964 248.592,154.884C247.273,153.857 246.321,153.247 245.735,153.054C245.149,152.862 243.994,152.765 242.268,152.765C241.748,152.765 240.82,152.793 239.485,152.85L238.973,152.871L238.973,162.091L243.465,162.091L246.614,157.788L246.614,168.293L243.465,164.215L236.8,164.215L236.8,177.912L238.362,177.912L238.362,165.363L243.66,165.363L244.295,165.998L238.973,165.998L238.973,177.912C242.293,177.912 244.653,177.676 246.053,177.204C247.452,176.732 248.551,175.804 249.349,174.42L250.642,172.199C250.691,172.101 250.789,171.922 250.935,171.662C251.359,173.452 251.884,174.884 252.51,175.959C253.137,177.033 254.174,178.286 255.623,179.718L228.255,179.718L231.966,176.886L231.966,165.998C230.599,166.16 229.362,166.584 228.255,167.267L227.913,166.754C228.906,166.038 230.257,165.574 231.966,165.363L231.966,164.215C231.689,164.183 231.494,164.167 231.38,164.167C229.72,164.167 228.206,164.777 226.839,165.998C227.587,163.393 229.296,162.091 231.966,162.091L231.966,151.733L228.255,148.737L254.305,148.737ZM255.476,150.348L255.306,150.568C253.32,153.237 251.993,155.475 251.326,157.282L250.911,156.769C252.002,154.246 253.409,151.935 255.135,149.836L255.476,150.348ZM248.299,158.576L248.299,169.367L247.688,169.049L247.688,158.258L248.299,158.576ZM258.406,179.933L257.137,182.062L230.476,182.062L230.086,181.476L256.819,181.476L257.649,179.933C255.306,177.761 253.654,175.442 252.693,172.975L253.475,173.269C254.37,175.36 255.883,177.45 258.016,179.541L258.406,179.933Z" style="fill:#9647ff;fill-rule:nonzero;"/>
        <path d="M260.286,148.737L271.248,148.737C275.903,148.737 279.215,149.38 281.184,150.666C283.691,152.277 284.944,154.515 284.944,157.379C284.944,159.121 284.464,160.635 283.504,161.92C282.544,163.206 281.201,164.134 279.475,164.704C277.75,165.273 275.008,165.558 271.248,165.558L268.245,165.558L268.245,177.375L271.224,180.06L259.871,180.06L263.265,177.204L263.265,167.414C263.069,167.397 262.931,167.389 262.85,167.389C261.678,167.389 260.555,167.642 259.48,168.146L259.261,167.707C260.351,167.088 261.328,166.779 262.19,166.779L263.069,166.779L263.265,166.754L263.265,165.558C262.89,165.509 262.638,165.485 262.508,165.485C260.766,165.485 259.375,165.908 258.333,166.754L258.089,166.388C259.082,164.565 260.677,163.654 262.874,163.654L263.265,163.654L263.265,151.477L260.286,148.737ZM268.245,150.933L268.245,163.483L268.562,163.483L269.197,163.507C269.262,163.507 269.368,163.499 269.515,163.483L269.515,152.594L272.2,152.594C274.283,152.594 275.752,152.777 276.607,153.144C277.461,153.51 278.19,154.271 278.792,155.426C278.19,154.596 277.437,154.014 276.534,153.681C275.63,153.347 274.357,153.18 272.713,153.18L270.198,153.18L270.198,163.483C273.421,163.483 275.785,162.998 277.29,162.028C278.796,161.057 279.549,159.535 279.549,157.461C279.549,155.136 278.877,153.447 277.535,152.393C276.192,151.339 274.031,150.812 271.053,150.812C270.288,150.812 269.352,150.852 268.245,150.933ZM283.699,151.349C284.692,151.838 285.489,152.698 286.092,153.929C286.694,155.16 286.995,156.557 286.995,158.122C286.995,161.659 285.628,164.202 282.893,165.751C280.826,166.924 277.294,167.511 272.298,167.511C271.468,167.511 270.768,167.495 270.198,167.463L270.198,177.581L274.031,182.062L261.8,182.062L261.141,181.476L272.64,181.476L269.515,177.85L269.515,166.802C270.931,166.884 272.436,166.925 274.031,166.925C278.23,166.925 281.347,166.184 283.382,164.7C285.416,163.217 286.433,160.943 286.433,157.878C286.433,156.606 286.238,155.502 285.848,154.565C285.457,153.627 284.741,152.555 283.699,151.349Z" style="fill:#9647ff;fill-rule:nonzero;"/>
        <path d="M307.405,154.181L306.99,153.937C305.428,153.074 303.995,152.643 302.693,152.643C298.413,152.643 296.272,156.85 296.272,165.265C296.272,171.418 297.599,175.495 300.252,177.497L300.032,177.741C298.405,176.585 297.245,175.067 296.553,173.188C295.861,171.308 295.516,168.765 295.516,165.558C295.516,156.525 297.892,152.008 302.644,152.008C304.809,152.008 306.396,152.733 307.405,154.181ZM302.181,148.42C306.136,148.42 309.297,149.917 311.665,152.912C314.034,155.906 315.218,159.91 315.218,164.923C315.218,169.66 314.05,173.436 311.714,176.252C309.379,179.067 306.241,180.475 302.303,180.475C299.194,180.475 296.427,179.482 294.002,177.497C290.437,174.567 288.655,170.229 288.655,164.484C288.655,159.569 289.876,155.662 292.317,152.765C294.759,149.868 298.046,148.42 302.181,148.42ZM302.181,150.519C296.679,150.519 293.929,155.353 293.929,165.021C293.929,173.957 296.639,178.424 302.058,178.424C304.581,178.424 306.502,177.24 307.82,174.872C309.139,172.504 309.798,169.041 309.798,164.484C309.798,159.324 309.163,155.727 307.893,153.693C306.559,151.577 304.655,150.519 302.181,150.519ZM309.969,149.665C312.296,150.788 314.135,152.708 315.486,155.426C316.837,158.144 317.513,161.286 317.513,164.85C317.513,170.091 316.182,174.323 313.521,177.545C310.86,180.768 307.364,182.379 303.035,182.379C300.268,182.379 297.68,181.444 295.271,179.572L295.271,179.45C297.29,180.931 299.821,181.671 302.864,181.671C306.949,181.671 310.302,180.133 312.923,177.057C315.543,173.981 316.853,170.05 316.853,165.265C316.853,161.701 316.255,158.584 315.059,155.915C313.863,153.245 312.166,151.252 309.969,149.933L309.969,149.665Z" style="fill:#9647ff;fill-rule:nonzero;"/>
        <path d="M320.833,151.667C324.69,149.437 328.841,148.322 333.284,148.322C336.735,148.322 339.579,149.071 341.817,150.568C344.055,152.065 345.174,153.97 345.174,156.281C345.174,158.169 344.441,159.841 342.976,161.298C341.512,162.755 339.51,163.809 336.971,164.46C338.094,167.554 339.62,170.567 341.548,173.498C343.477,176.429 345.41,178.677 347.347,180.24L346.98,180.362C344.555,181.19 342.179,182.359 339.851,183.869L339.485,184.113L339.363,183.332C338.322,177.033 336.865,171.694 334.993,167.316L334.895,167.072C333.772,167.593 332.267,168.008 330.379,168.317L330.183,168.341L330.183,177.472L334.48,182.062L321.858,182.062L321.468,181.476L333.089,181.476L329.549,177.643L329.549,167.804L330.061,167.731C331.917,167.536 333.471,167.17 334.725,166.632C334.627,166.437 334.57,166.315 334.554,166.266L334.309,165.558C334.293,165.509 334.253,165.412 334.187,165.265C333.178,165.558 331.274,165.876 328.475,166.217L328.206,166.266L328.206,177.155L330.989,180.06L320.198,180.06L323.372,177.155L323.372,168.952L323.177,168.976C322.233,169.188 321.378,169.424 320.613,169.684L320.418,169.757L320.198,169.269C320.914,168.992 321.476,168.805 321.883,168.708L323.177,168.39L323.372,168.341L323.372,167.072C322.412,167.072 321.215,167.283 319.783,167.707L319.515,167.804C319.547,167.576 319.71,167.047 320.003,166.217C320.035,166.152 320.149,165.786 320.345,165.119C320.361,165.07 320.385,164.997 320.418,164.899C321.15,164.948 321.72,164.972 322.127,164.972C322.566,164.972 322.973,164.948 323.348,164.899L323.348,152.887C322.599,152.432 321.826,152.049 321.028,151.74L320.833,151.667ZM328.206,151.032L328.206,164.191C328.678,164.191 329.126,164.15 329.549,164.069L329.549,152.057C330.444,151.813 331.518,151.691 332.771,151.691C335.945,151.691 338.102,152.733 339.241,154.816C338.037,153.839 336.979,153.168 336.067,152.802C335.156,152.436 334.065,152.253 332.796,152.253C331.803,152.253 330.932,152.35 330.183,152.545L330.183,164.069L330.452,164.02C333.658,163.434 336.039,162.51 337.593,161.249C339.148,159.988 339.925,158.348 339.925,156.33C339.925,154.523 339.225,153.03 337.825,151.85C336.425,150.67 334.659,150.08 332.527,150.08C330.818,150.08 329.378,150.397 328.206,151.032ZM339.998,165.68C341.023,169.033 342.838,172.313 345.442,175.519C347.07,177.521 349.129,179.32 351.619,180.915C347.892,181.907 344.392,183.421 341.121,185.456L340.901,185.602L340.413,185.212C343.522,183.177 346.834,181.68 350.35,180.719C345.662,177.594 341.975,172.598 339.29,165.729L339.143,165.314C344.124,163.426 346.614,160.545 346.614,156.671C346.614,155.076 345.971,153.335 344.685,151.447C346.329,152.944 347.151,154.849 347.151,157.16C347.151,160.903 344.767,163.743 339.998,165.68Z" style="fill:#9647ff;fill-rule:nonzero;"/>
        <path d="M378.67,148.737C378.523,149.013 378.426,149.199 378.377,149.297L376.717,152.218C376.147,153.257 375.618,154.556 375.13,156.114L375.081,156.235L374.837,156.061L374.764,155.738C374.292,153.848 373.62,152.538 372.749,151.809C371.879,151.079 370.548,150.714 368.758,150.714C368.025,150.714 367.293,150.747 366.56,150.812L366.267,150.812L366.267,177.399L369.148,180.06L357.991,180.06L361.409,177.204L361.409,152.827L359.676,152.79C357.999,152.79 356.807,153.126 356.099,153.8C355.391,154.474 354.972,155.659 354.842,157.355L354.207,157.355C354.386,155.414 354.878,154.063 355.684,153.3C356.49,152.536 357.82,152.155 359.676,152.155L361.141,152.18L361.409,152.18L361.409,150.961C360.579,150.862 359.79,150.812 359.041,150.812C356.941,150.812 355.428,151.247 354.5,152.118C353.572,152.989 353.059,154.461 352.962,156.534L352.669,156.534C351.969,154.276 350.887,151.758 349.422,148.981L349.275,148.737L378.67,148.737ZM380.208,150.617C379.085,152.049 377.905,154.425 376.668,157.746L376.57,157.99L376.033,157.526L376.106,157.306C377.311,153.937 378.475,151.593 379.598,150.275L379.72,150.128L380.208,150.617ZM373.689,154.084C372.436,153.27 370.971,152.863 369.295,152.863C368.92,152.863 368.53,152.887 368.123,152.936L368.221,177.532L372.102,182.062L359.627,182.062L359.065,181.476L370.76,181.476L367.488,177.728L367.488,152.228L368.807,152.204C370.385,152.204 371.504,152.33 372.163,152.582C372.823,152.834 373.331,153.335 373.689,154.084Z" style="fill:#9647ff;fill-rule:nonzero;"/>
        <path d="M403.304,149.005C402.457,150.145 401.782,151.333 401.277,152.57C400.284,155.011 399.625,156.509 399.3,157.062L399.178,157.209C399.113,157.03 399.064,156.891 399.031,156.794C398.575,155.329 398.201,154.311 397.908,153.742C397.615,153.172 397.176,152.627 396.59,152.106C395.109,150.788 393.424,150.128 391.536,150.128C389.794,150.128 388.346,150.613 387.19,151.581C386.035,152.55 385.457,153.766 385.457,155.231C385.457,157.965 387.516,159.829 391.634,160.822L395.76,161.823C401.635,163.239 404.573,166.339 404.573,171.125C404.573,173.794 403.568,176.036 401.558,177.851C399.548,179.665 397.062,180.573 394.1,180.573C392.244,180.573 390.169,180.288 387.874,179.718L385.017,179.01C383.862,178.734 382.91,178.595 382.161,178.595C381.168,178.595 380.143,178.913 379.085,179.547L378.89,179.206C380.908,176.162 382.324,173.265 383.138,170.514L383.577,170.636C383.919,173.192 384.944,175.177 386.653,176.593C388.362,178.009 390.6,178.717 393.367,178.717C395.548,178.717 397.281,178.213 398.567,177.204C399.853,176.195 400.496,174.836 400.496,173.127C400.496,171.157 399.601,169.53 397.81,168.244C396.525,167.332 393.888,166.486 389.9,165.705C386.824,165.102 384.594,164.101 383.211,162.702C381.827,161.302 381.136,159.357 381.136,156.867C381.136,154.295 382.059,152.208 383.907,150.605C385.754,149.001 388.159,148.2 391.121,148.2C393.025,148.2 395.247,148.542 397.786,149.225C398.974,149.551 399.853,149.713 400.423,149.713C401.22,149.713 402.091,149.437 403.035,148.883L403.304,149.005ZM404.817,150.038L404.598,150.413C403.93,151.564 403.361,152.664 402.889,153.714C401.749,156.164 401.106,157.531 400.96,157.815L400.838,157.99L400.252,157.74L400.35,157.515C400.822,156.415 401.505,154.981 402.4,153.214L404.06,149.916L404.183,149.721L404.817,150.038ZM397.688,154.889C395.898,152.985 393.977,152.033 391.927,152.033C390.69,152.033 389.664,152.391 388.85,153.107C388.037,153.823 387.63,154.735 387.63,155.841C387.63,157.046 388.452,158.283 390.096,159.552L390.291,159.674L390.169,159.87C388.02,158.909 386.946,157.518 386.946,155.695C386.946,154.425 387.402,153.392 388.313,152.594C389.225,151.797 390.413,151.398 391.878,151.398C393.278,151.398 394.502,151.695 395.552,152.289C396.602,152.883 397.371,153.717 397.859,154.792L397.688,154.889ZM403.304,164.582C405.517,166.258 406.624,168.553 406.624,171.466C406.624,174.575 405.419,177.208 403.011,179.364C400.602,181.521 397.672,182.599 394.222,182.599C392.464,182.599 390.877,182.42 389.461,182.062L385.555,181.11C384.643,180.882 383.667,180.768 382.625,180.768C381.697,180.768 380.843,180.955 380.061,181.33L379.768,180.622C380.615,180.231 381.477,180.036 382.356,180.036C383.333,180.036 384.448,180.182 385.701,180.475L389.461,181.378C390.958,181.737 392.537,181.916 394.197,181.916C397.452,181.916 400.223,180.878 402.51,178.803C404.797,176.728 405.94,174.217 405.94,171.271C405.94,168.781 405.061,166.6 403.304,164.728L403.304,164.582ZM385.921,171.613C386.523,174.543 388.134,176.618 390.755,177.838L390.755,178.034C387.727,177.155 385.896,175.055 385.262,171.735L385.921,171.613ZM382.869,163.703L383.699,164.167C384.236,165.127 385.807,165.924 388.411,166.559L392.342,167.536C395.011,168.203 396.789,168.777 397.676,169.257C398.563,169.737 399.194,170.465 399.568,171.442L399.397,171.54C398.665,170.693 397.871,170.075 397.017,169.684C396.162,169.294 394.523,168.813 392.098,168.244C388.582,167.43 386.222,166.726 385.017,166.132C383.813,165.538 383.097,164.728 382.869,163.703Z" style="fill:#9647ff;fill-rule:nonzero;"/>
    </g>
    <g transform="matrix(0.284871,0,0,0.284871,37.730912,111.393679)">
        <g>
            <g transform="matrix(0.575742,0,0,0.541498,99.131268,79.87344)">
                <path d="M356.096,136.068L356.096,440.104C356.096,443.149 353.775,445.617 350.911,445.617L148.437,445.617C147.06,445.617 145.739,445.034 144.766,443.996C143.793,442.959 143.249,441.552 143.253,440.087L143.958,195.982C143.962,194.437 144.576,192.964 145.651,191.924L206.853,132.634C207.802,131.714 209.038,131.202 210.322,131.196L350.889,130.555C352.268,130.549 353.593,131.127 354.57,132.161C355.547,133.196 356.096,134.602 356.096,136.068ZM345.727,141.604L212.362,142.212L154.32,198.44L153.638,434.592L345.727,434.592L345.727,141.604Z" style="fill:#9647ff;"/>
            </g>
            <g transform="matrix(1,0,0,1,-3.045266,1.316872)">
                <path d="M220.296,152.564C220.307,150.916 221.653,149.588 223.301,149.599C224.948,149.61 226.277,150.957 226.266,152.604L226.049,184.715C226.038,186.356 224.705,187.681 223.064,187.68L188.044,187.675C186.396,187.674 185.059,186.336 185.059,184.689C185.059,183.042 186.397,181.704 188.045,181.704L220.099,181.71L220.296,152.564Z" style="fill:#9647ff;"/>
            </g>
        </g>
        <g>
            <g transform="matrix(1.167598,0,0,1.52,-33.568688,-155.982981)">
                <rect x="202.617" y="239.589" width="68.299" height="16.352" style="fill:#9647ff;"/>
            </g>
            <g transform="matrix(1.167598,0,0,1.52,-33.568688,-126.603258)">
                <rect x="202.617" y="239.589" width="68.299" height="16.352" style="fill:#9647ff;"/>
            </g>
            <g transform="matrix(0.363129,0,0,1.52,129.819824,-96.253164)">
                <rect x="202.617" y="239.589" width="68.299" height="16.352" style="fill:#9647ff;"/>
            </g>
            <g transform="matrix(0.363129,0,0,1.52,156.902448,-96.253164)">
                <rect x="202.617" y="239.589" width="68.299" height="16.352" style="fill:#9647ff;"/>
            </g>
            <g transform="matrix(0.363129,0,0,1.52,184.374521,-96.253164)">
                <rect x="202.617" y="239.589" width="68.299" height="16.352" style="fill:#9647ff;"/>
            </g>
        </g>
    </g>
</svg>
